<?xml version="1.0" encoding="UTF-8" standalone="no"?>
<!-- Created with Inkscape (http://www.inkscape.org/) -->
<svg xmlns:svg="http://www.w3.org/2000/svg" xmlns="http://www.w3.org/2000/svg" version="1.0" width="600" height="600" id="svg1873">
  <defs id="defs1875"/>
  <g id="layer1">
    <path d="M 37.50003,-0.00048 L 562.50045,-0.00048 C 583.27547,-0.00048 600.00048,16.724533 600.00048,37.49955 L 600.00048,562.49997 C 600.00048,583.27499 583.27547,600 562.50045,600 L 37.50003,600 C 16.725013,600 0,583.27499 0,562.49997 L 0,37.49955 C 0,16.724533 16.725013,-0.00048 37.50003,-0.00048 z " style="fill:black;fill-opacity:1;fill-rule:nonzero;stroke:none;stroke-width:10;stroke-linecap:square;stroke-linejoin:bevel;stroke-miterlimit:4;stroke-dashoffset:0;stroke-opacity:1" id="rect1899"/>
    <path d="M 326.51728,24.227931 L 575.77298,273.48364 C 590.46316,288.17382 590.46316,311.82659 575.77298,326.51677 L 326.51727,575.77248 C 311.8271,590.46266 288.17432,590.46266 273.48414,575.77248 L 24.228435,326.51677 C 9.5382579,311.8266 9.5382579,288.17382 24.228435,273.48364 L 273.48415,24.227931 C 288.17432,9.5377543 311.8271,9.5377543 326.51728,24.227931 z " style="fill:white;fill-opacity:1;fill-rule:nonzero;stroke:none;stroke-width:10;stroke-linecap:square;stroke-linejoin:bevel;stroke-miterlimit:4;stroke-dashoffset:0;stroke-opacity:1" id="rect2789"/>
    <path d="M 190.23126,422.69833 L 190.23126,227.3184 L 168.2808,227.3184 L 168.2808,196.7371 L 170.79538,196.7371 C 175.83184,196.73733 180.86833,195.41781 185.90485,192.77855 C 190.9413,190.13975 195.13959,186.41912 198.49974,181.61665 L 229.08104,181.61665 L 229.08104,422.69833 L 190.23126,422.69833 z M 437.94529,219.76367 C 435.78557,222.39924 433.80538,224.7967 432.00472,226.95604 C 430.20371,229.11578 428.52366,231.27532 426.96457,233.43467 C 425.40514,235.59439 423.78732,237.87289 422.11109,240.27016 C 420.43454,242.6678 418.6337,245.42579 416.70858,248.54413 C 405.91804,266.29645 396.74549,285.00758 389.1909,304.67757 C 381.63604,324.34779 375.81626,343.89711 371.73155,363.32559 C 371.01403,368.36213 370.29663,373.21926 369.57933,377.897 C 368.86182,382.57483 368.32193,387.25261 367.95968,391.93036 C 367.5972,396.60817 367.29706,401.40674 367.05926,406.32608 C 366.82123,411.24546 366.70228,416.70287 366.70238,422.69833 L 327.84162,422.69833 C 328.08313,408.78212 328.92315,395.34905 330.3617,382.3991 C 331.8001,369.44922 333.89741,356.73722 336.65365,344.26306 C 339.40973,331.78905 342.94734,319.37536 347.26651,307.02195 C 351.5855,294.66877 356.74277,282.13429 362.73835,269.41848 C 366.81574,260.30465 371.25378,251.42857 376.05247,242.79024 C 380.85092,234.15226 385.40974,226.47675 389.72895,219.76367 L 274.58514,219.76367 L 274.58514,181.61665 L 437.94529,181.61665 L 437.94529,219.76367 L 437.94529,219.76367 z " style="font-size:359.81619263px" id="text2799"/>
  </g>
</svg>