<?xml version="1.0" encoding="UTF-8"?>
<!-- Generator: Adobe Illustrator 15.0.0, SVG Export Plug-In . SVG Version: 6.00 Build 0)  -->
<!DOCTYPE svg PUBLIC "-//W3C//DTD SVG 1.1//EN" "http://www.w3.org/Graphics/SVG/1.1/DTD/svg11.dtd">
<svg version="1.1" id="Layer_1" xmlns="http://www.w3.org/2000/svg" xmlns:xlink="http://www.w3.org/1999/xlink" x="0px" y="0px" width="72px" height="72px" viewBox="0 0 72 72" enable-background="new 0 0 72 72" xml:space="preserve">
<rect width="72" height="72"/>
<g>
	<path fill="#FFFFFF" d="M34.055,4.242v2.039H23.719v9.477h-7.266V6.281H6.07V4.242H34.055z"/>
	<path fill="#FFFFFF" d="M58.488,4.242h7.5L54.21,15.758h-6.819L35.707,4.242h7.711l7.5,8.742L58.488,4.242z"/>
	<path fill="#FFFFFF" d="M29.728,18.969h8.521L26.212,36.963v10.795h-7.52V36.963L6.241,18.969h8.862l7.471,12.539L29.728,18.969z"/>
	<path fill="#FFFFFF" d="M65.104,24.164c-1.044,0.82-2.495,2.282-4.354,4.385c-1.858,2.103-3.416,4.274-4.672,6.514   c-0.994,1.758-1.892,3.906-2.69,6.445s-1.198,4.622-1.198,6.25h-7.227c0.212-5.078,2.297-10.358,6.255-15.84   c2.558-3.398,4.699-5.768,6.427-7.109H40.006l0.098-5h25V24.164z"/>
	<path fill="#FFFFFF" d="M22.036,51.586h12.702v2.846h-9.004v3.725h7.892v2.812h-7.892v6.789h-3.698V51.586z"/>
	<path fill="#FFFFFF" d="M47.578,51.564h3.867l-6.073,16.193h-3.517l-6.024-16.193h3.977l3.867,12.293L47.578,51.564z"/>
</g>
</svg>